<svg xmlns="http://www.w3.org/2000/svg" viewBox="0 0 24 24">
    <path fill-rule="evenodd" clip-rule="evenodd" d="M11.73 7.386l-1.493-3.519a1.422 1.422 0 0 0-1.865-.753L.867 6.302a1.423 1.423 0 0 0-.754 1.866l5.483 12.925a1.422 1.422 0 0 0 1.865.754l3.144-1.336-.856-.23a1.418 1.418 0 0 1-.482-.232l-2.176.924a.474.474 0 0 1-.622-.251L.986 7.797a.474.474 0 0 1 .251-.622l7.506-3.188c.24-.103.52.01.622.251l1.966 4.636.399-1.488zm-4.996 2.942a.969.969 0 0 0-.323 1.24c.116.24.269.379.573.514.1.045.226.11.283.146.11.073.374.299.366.318-.008.02-.2-.032-.32-.086a1.04 1.04 0 0 0-1.398.564 1.006 1.006 0 0 0 .614 1.318c.145.048.39.06.541.026a.889.889 0 0 0 .361-.151c.187-.126.297-.265.404-.508.074-.168.243-.438.267-.429.02.01.112.374.138.56.048.325.032.578-.05.795a.772.772 0 0 1-.254.374l-.096.08 1.012-.43.005-.002c.98-.417 1.004-.428.902-.414-.417.06-.813-.188-1.205-.752a3.124 3.124 0 0 1-.14-.221l-.052-.097.07.01c.137.02.238.042.34.073a.58.58 0 0 0 .11.027.459.459 0 0 1 .107.03c.121.04.318.053.464.028.15-.026.407-.147.508-.242.132-.12.21-.23.275-.39a.872.872 0 0 0 .014-.715.814.814 0 0 0-.143-.272c-.046-.06-.092-.121-.101-.135-.039-.055-.188-.145-.326-.196a1.042 1.042 0 0 0-1.005.164 1.37 1.37 0 0 0-.33.44c-.049.095-.11.21-.137.253-.045.076-.048.079-.053.043-.01-.078.012-.389.032-.491a3.39 3.39 0 0 1 .088-.295c.113-.325.114-.508.002-.772a.884.884 0 0 0-.418-.473c-.332-.192-.802-.163-1.125.068zM2.025 7.761a.437.437 0 0 1 .145-.559.488.488 0 0 1 .508-.03.4.4 0 0 1 .188.213c.05.12.05.202 0 .348a1.527 1.527 0 0 0-.04.133 1.336 1.336 0 0 0-.015.222c.003.016.004.014.024-.02.012-.02.04-.071.062-.114a.617.617 0 0 1 .149-.198.47.47 0 0 1 .6.014l.045.06c.032.042.042.061.065.123a.393.393 0 0 1-.006.323.45.45 0 0 1-.124.176.585.585 0 0 1-.23.109.492.492 0 0 1-.208-.013.207.207 0 0 0-.048-.013.26.26 0 0 1-.05-.012.929.929 0 0 0-.153-.033l-.032-.005.024.044a1.4 1.4 0 0 0 .063.1c.176.254.355.366.543.339.045-.006.035-.002-.407.187h-.002l-.456.194.043-.036a.348.348 0 0 0 .114-.169.708.708 0 0 0 .023-.358 1.271 1.271 0 0 0-.063-.253c-.01-.003-.087.118-.12.194a.474.474 0 0 1-.589.285.454.454 0 0 1-.276-.594.469.469 0 0 1 .63-.255c.054.025.14.048.144.04a.928.928 0 0 0-.165-.144 1.271 1.271 0 0 0-.127-.066c-.138-.06-.206-.123-.259-.232zM15.07 3.527a1.422 1.422 0 0 0-1.742 1.007L9.696 18.097c-.203.759.247 1.539 1.006 1.742l7.876 2.112a1.422 1.422 0 0 0 1.741-1.006l3.632-13.563a1.423 1.423 0 0 0-1.005-1.743L15.07 3.527zm1.22 7.548c.712-.369.927-.5 1.116-.675.059-.052.062-.053.075-.02.129.353.21.504.526.998.315.493.494.794.584.984.295.623.294 1.113-.004 1.446-.107.117-.348.25-.517.282a1.018 1.018 0 0 1-.528-.025.98.98 0 0 1-.46-.237.833.833 0 0 1-.216-.264l-.061-.1-.01.078c-.064.522-.024 1.064.101 1.346.086.19.168.288.315.383.074.048.045.04-1.01-.243-.72-.193-1.07-.292-1.031-.293.098 0 .268-.038.355-.08.236-.115.509-.429.716-.825.078-.148.194-.39.206-.429a.432.432 0 0 0-.121.054c-.134.07-.374.125-.522.12-.55-.017-1.01-.41-1.066-.91-.01-.084-.005-.13.034-.275a.994.994 0 0 1 .257-.475c.23-.263.51-.45 1.26-.84zm-.765-6.024c-.087.079-.184.137-.51.303-.342.175-.47.258-.574.377a.443.443 0 0 0-.117.214.27.27 0 0 0-.015.124c.026.225.238.404.489.412a.58.58 0 0 0 .238-.053.2.2 0 0 1 .055-.024 2.673 2.673 0 0 1-.093.193c-.094.179-.219.32-.326.371a.468.468 0 0 1-.163.036c-.017 0 .143.046.472.134.483.13.496.133.462.111a.355.355 0 0 1-.144-.173c-.058-.128-.077-.372-.048-.608l.004-.035.028.045a.38.38 0 0 0 .099.12.453.453 0 0 0 .21.108.47.47 0 0 0 .478-.115c.136-.15.135-.371 0-.653a4.808 4.808 0 0 0-.27-.445c-.144-.223-.182-.292-.241-.451-.006-.015-.008-.015-.034.009zm3.107 15.074c-.326.165-.423.224-.51.303-.026.023-.028.023-.034.009-.06-.16-.096-.228-.242-.452a4.806 4.806 0 0 1-.268-.445c-.136-.282-.136-.503 0-.652a.47.47 0 0 1 .477-.114c.096.025.144.05.21.107a.38.38 0 0 1 .099.12l.028.045.005-.035c.028-.236.009-.48-.049-.608a.355.355 0 0 0-.144-.174c-.034-.021-.021-.018.462.112.33.088.49.133.472.133a.471.471 0 0 0-.162.036c-.108.052-.232.193-.327.371a2.749 2.749 0 0 0-.093.194.2.2 0 0 0 .055-.024.579.579 0 0 1 .239-.054c.25.009.462.187.488.413a.27.27 0 0 1-.015.124.443.443 0 0 1-.117.214c-.104.118-.232.202-.574.377z" fill="#f0c2c2"/>
</svg>
