<?xml version="1.0" encoding="UTF-8"?> <svg xmlns="http://www.w3.org/2000/svg" id="Layer_1" data-name="Layer 1" viewBox="0 0 408.52 542.69"><defs><style>.cls-1{fill:#f0c2c2;}.cls-2{fill:#3b3b3b;}.cls-3{fill:#231f20;}</style></defs><title>Logo</title><path class="cls-1" d="M635.08,647.2a39.47,39.47,0,0,1,7.23,12.13,39.67,39.67,0,0,0-.47-11.62l.41-.13q1.92,5.42,3.82,10.84h.24v-9.63l.31-.11q1.35,3.41,2.71,6.83c.55-2-.28-6.66-2.18-12.35l.32-.19c1,1.69,2.11,3.33,3,5.08s1.52,3.67,2.32,5.65l3.33-6.66.32.11c-.46,3.81-.93,7.62-1.39,11.4l5-4.55.41.24c-1.9,4.14-3.7,8.31-4.4,13.22l27.73,2c-.11-3.64-1.65-6.53-3.68-9.26a23.23,23.23,0,0,1,7.5,7.4c1.18-5.19-.8-14.27-4.71-22.28,3,1.77,4.78,4.44,7.81,11.65,1.66-3.22,3.69-5.84,6.91-7.32-2.91,4.65-5,9.56-5.23,15.19,2.38-3.24,5.12-6,9-7.37-3.43,3.63-6.24,7.58-7.1,13l5.3.68c9.64,1.23,19.28,2.41,28.91,3.71a3.71,3.71,0,0,0,3.84-1.47A179.3,179.3,0,0,0,768.38,602a179.72,179.72,0,0,0-12-120.21q-26-54.16-79.13-82.35A180.56,180.56,0,0,0,591.44,379c-34.35.71-66.18,10-95,28.89q-56,36.67-75,101a170.88,170.88,0,0,0-6.05,31.33,173.72,173.72,0,0,0-.6,30.08c2.55,36,14.64,68.51,36.53,97.3a3.05,3.05,0,0,0,1.17,1l-.74-1.69.32-.28c1.83,1.81,3.77,3.53,5.45,5.47s3.08,4,4.88,6.45a73.47,73.47,0,0,0-3.18-13.07c2.9,3.26,4.81,7.17,6.91,10.94l.52-.18q-1.29-5.57-2.57-11.12l.23-.19,4.85,7.31.3-.09c-.47-1.52-.89-3.07-1.44-4.56a47.57,47.57,0,0,0-1.9-4.47c-.73-1.49-1.58-2.91-2.38-4.37l.31-.28c1.56,1.72,3.23,3.35,4.65,5.18s2.54,3.78,3.94,5.89c.75-2.93.91-5.79,2.52-8.23a74.78,74.78,0,0,0,1.43,13.47l4.38-7.06.33.13c-.56,2.77-1.11,5.55-1.69,8.47l51.16-6.58c-1.55-5.26-5-9.09-9.29-12.28,4.11.75,7.23,3.12,10.16,5.91a21.5,21.5,0,0,0-6.44-11.63,39,39,0,0,1,4,2.58,45.11,45.11,0,0,1,3.5,3.61,17.36,17.36,0,0,1,5.84-10.57,30.71,30.71,0,0,0-1.81,17.85c1.65-2.8,3.29-5.57,5.9-7.67-1.54,3.63-2.48,7.31-1.71,11.42l41-2.35a37,37,0,0,0-6.51-17.16,33.65,33.65,0,0,1,9.12,10.14l.5-.23q-1.47-5.54-2.95-11.05l.25-.17,6,10.08c-.24-3.81-1.3-7-2-10.43,1.37,2,2.75,4.08,4.16,6.19.19-2-1.48-6.2-4.45-11.24l.29-.27c1.29,1.4,2.69,2.73,3.86,4.22s2.22,3.29,3.45,5.15l1.84-6.92.36.1L597,656.17h.42l3.83-6c-1.16,5.3-2.06,10.53-1.41,16h18.93l-3.22-8.08a10.1,10.1,0,0,1,5.13,3.8l.48-.2-1.26-10a48.46,48.46,0,0,1,6.31,10,58.14,58.14,0,0,0-1-16.66l.36-.14c.81,1.74,1.66,3.45,2.42,5.21s1.4,3.56,2.25,5.33c1.23-4.32,2-8.74,5-12.73-.27,1.56-.48,2.76-.68,4Z" transform="translate(-399.73 -301.49)"></path><path class="cls-1" d="M635.08,647.2l-.49-.51a24.8,24.8,0,0,0,2.78,19.37,1.45,1.45,0,0,0,.39.39c.08.06.23,0,.68.09.06-1.46.21-2.91.15-4.34A43.94,43.94,0,0,0,635.68,649C635.46,648.38,635.28,647.79,635.08,647.2Z" transform="translate(-399.73 -301.49)"></path><g id="_580813776" data-name=" 580813776"><path class="cls-2" d="M602.07,357.28c-91.27,0-167.87,62.91-188.76,147.76A185.21,185.21,0,0,1,591,371.92c77.56,0,136.63,44.12,165.49,102.93,29.73,60.59,30.13,141.69-17.12,201.47q13.51,4,26.71,8.89c45-60.18,45.13-150.41,11.27-216.43C744.9,405.52,681.05,357.28,602.07,357.28Z" transform="translate(-399.73 -301.49)"></path><path class="cls-2" d="M747.77,484.44c-9.76-6-11.91-14.41-6.48-24.15C750.71,466.54,753.12,475.69,747.77,484.44Zm30.83,97.29,16.51-3.05C794.47,520.12,753,473,695.21,470.55,743.79,481.36,780.38,529.68,778.6,581.73ZM690.85,379.86c46.72,27.95,55.73,54.13,57.77,57.1,4.7,6.86-67.74-49.29-68.23-49.72a101.26,101.26,0,0,1-35.11-66.31A102.48,102.48,0,0,0,690.85,379.86Zm-47.34-49.75c.58-8.66-3.69-13.72-12.09-14.62C631.16,324.06,635.75,329.59,643.51,330.11Zm6.13,20.75c-2-10.44-8.66-15.08-18.86-13.52C633.14,347.54,640.28,352.63,649.64,350.86Zm11.28-.21c-2.07-10.43,2.32-17.2,12.38-19.61C675,341.38,670.24,348.79,660.92,350.65ZM647,319.85c-3.17-8.08-.82-14.47,6.56-18.36C656.41,309.59,653.91,316.51,647,319.85Zm59.83,149.39c-8.52-1.71-12.29-7.15-11-15.49C704.21,455.7,708.31,461.6,706.83,469.24Zm20,4.68c-9.53-4.68-12.29-12.26-8.17-21.74C728,457.1,731,465.35,726.88,473.92ZM437.77,443.15c-10.2-6-20-1.08-24.84,9.76C424.26,457,433.65,453.29,437.77,443.15Zm28.63-18.54c-10.7,5.49-11.83,16.56-5.21,26.7C471,443.85,472.88,433.73,466.4,424.61ZM416,484.35c-8.11-2.76-14.33,2.15-16.22,10.58C408.39,496.18,414.5,492.17,416,484.35ZM412.32,509c-8.6,5.63-8.52,15.14-2,23.13C417.93,524.86,418.62,516.09,412.32,509Zm21.5-45.1c-9.12,7.84-7.61,18.88,1.22,27.17C442.74,481.48,442.25,471.22,433.82,463.87Zm318.28,46.2c-9.5,8.28-19.06,7.79-27.49-1.13C734.26,501.09,744.66,501.58,752.1,510.07Zm-23.3-21.88c-9.53-4.68-17.23-2.21-22.17,6.89C716.19,499.38,724.58,496.73,728.8,488.19ZM694.13,471.1c-7-5.14-13.74-4.53-19.41,1.6C681.78,477.55,689.13,476.91,694.13,471.1Z" transform="translate(-399.73 -301.49)"></path></g><path class="cls-3" d="M448.27,755.11a.79.79,0,0,1,.39-.61,1,1,0,0,1,.72-.11,1.49,1.49,0,0,1,.72.36,1,1,0,0,1,.33.79v.15c-.29.72-.72,1.93-1.3,3.63s-1.25,3.62-2,5.73-1.62,4.32-2.55,6.62a65,65,0,0,1-2.92,6.27,27.83,27.83,0,0,1-3.06,4.64,4.19,4.19,0,0,1-3,1.83,3.25,3.25,0,0,1-2.59-1.18,9.44,9.44,0,0,1-1.65-3.1,25.58,25.58,0,0,1-1.05-4.43c-.26-1.68-.49-3.42-.68-5.22s-.37-3.57-.54-5.33-.37-3.37-.61-4.86L417.88,760a26.77,26.77,0,0,0-.79,3c-.29,1.33-.64,2.79-1,4.4s-.89,3.25-1.44,4.93a29.43,29.43,0,0,1-1.95,4.61,12.83,12.83,0,0,1-2.55,3.42,4.72,4.72,0,0,1-3.24,1.33q-2.31,0-4.11-2.56a16.47,16.47,0,0,1-2.55-6.48,27.08,27.08,0,0,1-.15-8.67,24.6,24.6,0,0,1,3.13-9.15c.2-.43.73-.75,1.62-1a5.58,5.58,0,0,1,2.6,0,3.59,3.59,0,0,1,2,1.23c.51.62.49,1.58,0,2.88a55,55,0,0,0-1.44,6.73,57.39,57.39,0,0,0-.62,6,24,24,0,0,0,.15,4.36c.17,1.13.44,1.69.83,1.69s1-1,1.65-2.92,1.42-4.47,2.23-7.59,1.72-6.65,2.7-10.59,2-7.89,3.06-11.88,2.16-7.81,3.32-11.48a83.52,83.52,0,0,1,3.52-9.47,6.21,6.21,0,0,1,2.42-2.88,5.74,5.74,0,0,1,3.27-.86,6.88,6.88,0,0,1,3.42,1.15,9.19,9.19,0,0,1,2.92,3.17,12,12,0,0,1,.9,3.78q.31,2.7.47,6.37t.14,8.06c0,2.93,0,5.86-.07,8.79s-.09,5.76-.11,8.49,0,5.17,0,7.28.14,3.8.28,5.07.36,1.91.65,1.91,1-.44,1.59-1.33a31.34,31.34,0,0,0,2-3.35q1-2,2.05-4.36c.67-1.55,1.28-3,1.83-4.35s1-2.45,1.3-3.31A5.78,5.78,0,0,0,448.27,755.11Zm-19.77-4.64q.11-3.71.29-7.53t.4-7.38c.14-2.37.24-4.48.28-6.33s0-3.34,0-4.47-.25-1.69-.54-1.69-.61.57-1.12,1.69-1.09,2.63-1.76,4.5-1.38,4-2.13,6.41-1.46,4.87-2.16,7.42-1.33,5.06-1.9,7.56-1,4.75-1.3,6.77l1.8,0c1.05,0,2.2,0,3.42,0s2.82,0,4.79-.07Q428.39,754.18,428.5,750.47Z" transform="translate(-399.73 -301.49)"></path><path class="cls-3" d="M468.78,755.47a1.35,1.35,0,0,1,.72-.86,1.71,1.71,0,0,1,.94-.15,1.18,1.18,0,0,1,.72.4.61.61,0,0,1,.14.68,12.48,12.48,0,0,1-1.29,2.2,31.67,31.67,0,0,1-2.34,2.88,40.06,40.06,0,0,1-3.21,3.13,47.68,47.68,0,0,1-3.81,3,9.82,9.82,0,0,1,1.94,4.11,13.87,13.87,0,0,1,.22,4.68,15.81,15.81,0,0,1-1.3,4.61,16,16,0,0,1-2.55,4,12.68,12.68,0,0,1-3.57,2.85,9,9,0,0,1-4.32,1.08,4.32,4.32,0,0,1-3.56-1.8,6.91,6.91,0,0,1-1.26-4.76,15.32,15.32,0,0,1,2.27-6.66,27.77,27.77,0,0,1,6.87-7.52q-1.87-2.08-3.81-4a31.25,31.25,0,0,1-3.5-4,20.76,20.76,0,0,1-2.55-4.72,17.12,17.12,0,0,1-1-6.19,17.71,17.71,0,0,1,.22-2.74,10.7,10.7,0,0,1,.79-2.77,9.3,9.3,0,0,1,1.55-2.45,6.84,6.84,0,0,1,2.41-1.76,4.69,4.69,0,0,1,2-.44,4,4,0,0,1,3.06,1.09,5.08,5.08,0,0,1,1.34,2.73,12.11,12.11,0,0,1,0,3.71,26.26,26.26,0,0,1-.9,4,27.69,27.69,0,0,1-1.41,3.61,15.53,15.53,0,0,1-1.44,2.51,24.34,24.34,0,0,0,3.39,4.25q1.86,1.88,3.74,4.18c.86-.62,1.78-1.3,2.74-2s1.87-1.46,2.73-2.23,1.66-1.53,2.38-2.3A9.12,9.12,0,0,0,468.78,755.47ZM450.5,753.6a3.1,3.1,0,0,0,.86-1.33,22.6,22.6,0,0,0,.83-2.49,29.19,29.19,0,0,0,.65-3,23.36,23.36,0,0,0,.28-3,6.62,6.62,0,0,0-.25-2.24c-.19-.57-.5-.86-.93-.86s-1,.59-1.48,1.76a16.3,16.3,0,0,0-.68,5.51c0,1.2,0,2.22.07,3.06A7.27,7.27,0,0,0,450.5,753.6Zm6,16.56a17.15,17.15,0,0,0-4.86,5.15,11.36,11.36,0,0,0-1.54,4.57,5.3,5.3,0,0,0,.61,3.24c.5.81,1,1.22,1.62,1.22A3.73,3.73,0,0,0,455,782.9a10.86,10.86,0,0,0,2.12-3.56,13.05,13.05,0,0,0,.79-4.61A8.09,8.09,0,0,0,456.54,770.16Z" transform="translate(-399.73 -301.49)"></path><path class="cls-3" d="M495.35,769.51a3.55,3.55,0,0,1,2-.43,1.08,1.08,0,0,1,.87.61,1.33,1.33,0,0,1-.08,1,1.6,1.6,0,0,1-.9.87,10.35,10.35,0,0,0-4,3.06,4.34,4.34,0,0,0-1,2.91,2.73,2.73,0,0,0,1.26,2.06,3.3,3.3,0,0,0,2.62.43,6.84,6.84,0,0,0,3.17-1.91,12.76,12.76,0,0,0,2.88-5,30.5,30.5,0,0,0,1.3-4.86,33.76,33.76,0,0,0,.57-5.33,25.65,25.65,0,0,0-.32-5,8.13,8.13,0,0,0-1.51-3.75,4.56,4.56,0,0,0-3-1.69,7.71,7.71,0,0,0-4.58,1.15,1.1,1.1,0,0,1-1.11,0,2.28,2.28,0,0,1-.87-.79,1.81,1.81,0,0,1-.28-1.12,1.34,1.34,0,0,1,.68-1,19.15,19.15,0,0,0,4.72-4.39,28,28,0,0,0,3.27-5.44,27.41,27.41,0,0,0,1.91-5.69,26.84,26.84,0,0,0,.65-5.11,10,10,0,0,0-.51-3.67c-.36-.94-.9-1.4-1.62-1.4a4.14,4.14,0,0,0-2.48,1.15,17.29,17.29,0,0,0-2.7,2.81,23.45,23.45,0,0,0-2.27,3.49,8,8,0,0,0-1,3.2q-.8,9.59-1.23,17.89t-.43,15.52a4.14,4.14,0,0,1-.68,2.63,2.38,2.38,0,0,1-1.55.93,2.25,2.25,0,0,1-1.69-.5,3,3,0,0,1-1.12-1.76,44.88,44.88,0,0,1-.86-6.52q-.28-4-.36-8.68c-.05-3.11-.05-6.33,0-9.64s.12-6.48.21-9.51.22-5.78.36-8.28.27-4.46.36-5.9a2.82,2.82,0,0,1,1.41-2.27,5.8,5.8,0,0,1,2.7-.83,4.75,4.75,0,0,1,2.63.62,2.27,2.27,0,0,1,1.18,2.12c0,.38,0,.77,0,1.15s-.05.83-.07,1.33-.08,1.1-.15,1.77-.15,1.49-.25,2.44a28.26,28.26,0,0,1,2.09-2.8,15.74,15.74,0,0,1,2.55-2.42,14.11,14.11,0,0,1,3-1.69,8.41,8.41,0,0,1,3.27-.65,6.9,6.9,0,0,1,4.57,1.41,7.16,7.16,0,0,1,2.34,3.74,13.61,13.61,0,0,1,.29,5.33,24,24,0,0,1-1.65,6.16,33.18,33.18,0,0,1-8.64,12,10.55,10.55,0,0,1,5.58,1.84,9.83,9.83,0,0,1,3.09,3.88,13.84,13.84,0,0,1,1.15,5.19,27.59,27.59,0,0,1-.36,5.72,32.17,32.17,0,0,1-1.36,5.47,33.86,33.86,0,0,1-1.84,4.4,15.88,15.88,0,0,1-5.36,6.37A10.32,10.32,0,0,1,496.4,784a8.59,8.59,0,0,1-4.86-1.66,6.76,6.76,0,0,1-2.67-3.74,6.15,6.15,0,0,1,.83-4.68Q491.11,771.38,495.35,769.51Z" transform="translate(-399.73 -301.49)"></path><path class="cls-3" d="M537.33,754.68a3.66,3.66,0,0,1,.75.43,1.07,1.07,0,0,1,.47.65c0,.1-.27,1-.68,2.55s-1,3.62-1.66,6-1.52,5-2.48,7.74a75.27,75.27,0,0,1-3.13,7.66A28.08,28.08,0,0,1,527,785.6q-2,2.34-4,2.34c-1.59,0-2.88-.91-3.89-2.73A24.13,24.13,0,0,1,516.7,778a80.85,80.85,0,0,1-1.12-10.33q-.29-5.83-.28-12,0-3.95.07-7.92c0-2.63.11-5.22.18-7.73s.13-4.94.18-7.24.07-4.44.07-6.41c0-.58.37-1,1.12-1.4a5.28,5.28,0,0,1,2.34-.54,4.2,4.2,0,0,1,2,.5,1.82,1.82,0,0,1,.9,1.73c0,2.11,0,4.42-.07,6.91s-.1,5.1-.15,7.81-.09,5.47-.14,8.28-.07,5.58-.07,8.32c0,3,0,6,.14,9s.25,5.6.47,7.92a32.41,32.41,0,0,0,.93,5.65c.41,1.45.9,2.16,1.48,2.16s1.32-.6,2.09-1.8a30.86,30.86,0,0,0,2.34-4.6c.79-1.88,1.57-3.91,2.34-6.12s1.46-4.32,2.09-6.34,1.15-3.78,1.58-5.29.72-2.51.86-3,.46-.86.94-.86a.32.32,0,0,1,.14,0A.28.28,0,0,0,537.33,754.68Z" transform="translate(-399.73 -301.49)"></path><path class="cls-3" d="M569.15,754.46a1.94,1.94,0,0,1,.76.47,1,1,0,0,1,.32.68v.15c-.38,1-1,2.48-1.69,4.57s-1.62,4.32-2.63,6.7-2.12,4.69-3.35,7a22.81,22.81,0,0,1-3.78,5.32,6,6,0,0,1-2.08,1.23,6.69,6.69,0,0,1-2.08.43,3.5,3.5,0,0,1-2.56-1,6.3,6.3,0,0,1-1.53-2.56,15.37,15.37,0,0,1-.71-3.56q-.18-2-.18-3.93c0-.91,0-1.79.07-2.63s.07-1.59.07-2.26a17.81,17.81,0,0,1-1.47,2.88,15.86,15.86,0,0,1-2,2.59,9.69,9.69,0,0,1-2.48,1.87,6.12,6.12,0,0,1-2.88.72h-.43q-2.31-.36-4-3.43a17.13,17.13,0,0,1-1.69-8.27,20.24,20.24,0,0,1,.54-4.76,14.1,14.1,0,0,1,1.51-3.9,8.73,8.73,0,0,1,2.27-2.64,4.46,4.46,0,0,1,2.73-1,4.78,4.78,0,0,1,2.78.9,10.89,10.89,0,0,1,2.26,2.24,18.77,18.77,0,0,1,1.77,2.84c.5,1,.9,1.9,1.19,2.66q.42-1.65.81-3.45c.27-1.2.51-2.45.75-3.75a1,1,0,0,1,.75-.82,4.11,4.11,0,0,1,1.46-.26,7.86,7.86,0,0,1,2.78.51c.91.34,1.36.72,1.36,1.16v.07c-.14.58-.31,1.57-.5,3s-.37,3-.54,4.84-.31,3.69-.43,5.67-.18,3.78-.18,5.41a31.45,31.45,0,0,0,.25,4.41c.17,1.15.44,1.73.83,1.73s1-.52,1.69-1.55a35.9,35.9,0,0,0,2.23-3.89c.8-1.56,1.6-3.24,2.42-5s1.54-3.48,2.19-5,1.18-2.86,1.59-3.92.61-1.61.61-1.66a.61.61,0,0,1,.25-.54,1,1,0,0,1,.61-.18ZM546.9,765.62a25.72,25.72,0,0,0,2.09-4.89q-1.37-2.88-2.16-4.5a20.17,20.17,0,0,0-1.29-2.34,3,3,0,0,0-.8-.87,1.33,1.33,0,0,0-.57-.14c-.24,0-.52.21-.83.65a8.66,8.66,0,0,0-.94,1.8,16,16,0,0,0-.79,2.8,19.78,19.78,0,0,0-.32,3.68A17.81,17.81,0,0,0,542,768c.51,1.23,1,1.84,1.34,1.84s1-.38,1.58-1.15A30.34,30.34,0,0,0,546.9,765.62Z" transform="translate(-399.73 -301.49)"></path><path class="cls-3" d="M591,754.61c.76.24,1.15.6,1.15,1.08a122.07,122.07,0,0,1-6.19,11.23,50,50,0,0,1-5.15,6.91,15.75,15.75,0,0,1-4.25,3.46,6,6,0,0,1-3.42.72,5.48,5.48,0,0,1-3-1.37,9,9,0,0,1-2.16-3,16.86,16.86,0,0,1-1.3-4.25,33.14,33.14,0,0,1,.36-12.52,14.9,14.9,0,0,1,2-4.61,7.16,7.16,0,0,1,2.55-2.38,5.67,5.67,0,0,1,2.5-.68,4.47,4.47,0,0,1,2.19.57,5.76,5.76,0,0,1,1.79,1.59,8,8,0,0,1,1.18,2.34,9.08,9.08,0,0,1,.43,2.84,8.93,8.93,0,0,1-.14,1.51.84.84,0,0,1-.91.79,1.22,1.22,0,0,1-.8-.32,1.05,1.05,0,0,1-.38-.83c0-.24,0-.47,0-.68a5,5,0,0,0,0-.69,6.61,6.61,0,0,0-.43-2.41c-.29-.74-.63-1.11-1-1.11s-.94.33-1.37,1a12.56,12.56,0,0,0-1.19,2.56,22.23,22.23,0,0,0-.86,3.38,19.8,19.8,0,0,0-.32,3.5c0,3.79.34,6.45,1,8s1.52,2.3,2.48,2.3a4.65,4.65,0,0,0,2.78-1.26,21.27,21.27,0,0,0,3.09-3.17q1.54-1.9,3-4.14c1-1.48,1.84-2.9,2.59-4.24s1.34-2.51,1.8-3.5a7,7,0,0,0,.68-1.83v-.07q.36-.36.51-.54a.43.43,0,0,1,.36-.18Z" transform="translate(-399.73 -301.49)"></path><path class="cls-3" d="M627.4,754.68a1,1,0,0,1,.79,1.08,19,19,0,0,1-.68,2.48q-.69,2.21-1.84,5.29t-2.7,6.63a65,65,0,0,1-3.28,6.52,27.74,27.74,0,0,1-3.56,5,5,5,0,0,1-3.49,2q-1.8,0-3.35-2.7c-1-1.8-1.88-4.83-2.56-9.11a39.71,39.71,0,0,0-1.29-6.19,12.79,12.79,0,0,0-1.48-3.31,3.33,3.33,0,0,0-1.47-1.33,3.77,3.77,0,0,0-1.23-.25,1.55,1.55,0,0,0-.65.14.58.58,0,0,1-.28.07c-1.3,3.17-2.32,5.78-3.06,7.81S596.1,771.89,596,772c-.1.34-.52.62-1.26.87a7.94,7.94,0,0,1-2.34.35,4.93,4.93,0,0,1-1.91-.35,1.37,1.37,0,0,1-.83-1.37l.07-45.15c0-.53.37-1,1.12-1.33a5.46,5.46,0,0,1,2.41-.54,4.39,4.39,0,0,1,2.05.47,1.67,1.67,0,0,1,.9,1.62l-.36,38.81q1.59-4.24,3.57-8.9a66.66,66.66,0,0,1,4.35-8.53,28.68,28.68,0,0,1,5.22-6.44,9.09,9.09,0,0,1,6.16-2.56,1.23,1.23,0,0,1,1.22,1.23.82.82,0,0,1-.93.93,5,5,0,0,0-3,1.19,18,18,0,0,0-3,3q-1.47,1.85-2.84,4t-2.45,4c-.72,1.23-1.32,2.26-1.8,3.1s-.79,1.29-.93,1.33a10.87,10.87,0,0,1,2.08-.21,8.16,8.16,0,0,1,5.26,1.51,9.52,9.52,0,0,1,2.81,3.74,16.84,16.84,0,0,1,1.19,4.9q.24,2.67.36,4.89a32.28,32.28,0,0,0,.36,3.75c.16,1,.56,1.51,1.18,1.51s1.26-.54,2.06-1.62a32.38,32.38,0,0,0,2.48-4.1c.86-1.66,1.72-3.45,2.56-5.37s1.58-3.71,2.23-5.36,1.17-3.05,1.58-4.18.61-1.71.61-1.76a.74.74,0,0,1,.26-.58.9.9,0,0,1,.61-.21.36.36,0,0,1,.18,0S627.3,754.68,627.4,754.68Z" transform="translate(-399.73 -301.49)"></path><path class="cls-3" d="M687.16,755.11a.79.79,0,0,1,.39-.61,1,1,0,0,1,.72-.11,1.45,1.45,0,0,1,.72.36,1,1,0,0,1,.33.79v.15c-.29.72-.72,1.93-1.3,3.63s-1.25,3.62-2,5.73-1.61,4.32-2.55,6.62a65,65,0,0,1-2.92,6.27,27.22,27.22,0,0,1-3.06,4.64,4.17,4.17,0,0,1-3,1.83,3.25,3.25,0,0,1-2.6-1.18,9.44,9.44,0,0,1-1.65-3.1,27.56,27.56,0,0,1-1-4.43c-.26-1.68-.49-3.42-.68-5.22s-.37-3.57-.54-5.33-.37-3.37-.61-4.86L656.77,760a26.77,26.77,0,0,0-.79,3c-.29,1.33-.64,2.79-1,4.4s-.89,3.25-1.44,4.93a28.51,28.51,0,0,1-2,4.61,12.83,12.83,0,0,1-2.55,3.42,4.68,4.68,0,0,1-3.24,1.33q-2.31,0-4.11-2.56a16.47,16.47,0,0,1-2.55-6.48A27.37,27.37,0,0,1,639,764a24.62,24.62,0,0,1,3.14-9.15c.19-.43.73-.75,1.62-1a5.54,5.54,0,0,1,2.59,0,3.55,3.55,0,0,1,2,1.23c.51.62.49,1.58,0,2.88a59,59,0,0,0-2,12.74,23.2,23.2,0,0,0,.14,4.36c.17,1.13.44,1.69.83,1.69s1-1,1.65-2.92,1.42-4.47,2.24-7.59,1.71-6.65,2.7-10.59,2-7.89,3.06-11.88,2.15-7.81,3.31-11.48a83.4,83.4,0,0,1,3.53-9.47,6.13,6.13,0,0,1,2.41-2.88,5.74,5.74,0,0,1,3.27-.86,6.81,6.81,0,0,1,3.42,1.15,9.19,9.19,0,0,1,2.92,3.17,12,12,0,0,1,.9,3.78c.22,1.8.37,3.92.47,6.37s.14,5.14.14,8.06,0,5.86-.07,8.79-.09,5.76-.11,8.49,0,5.17,0,7.28.14,3.8.29,5.07.36,1.91.64,1.91c.44,0,1-.44,1.59-1.33a31.34,31.34,0,0,0,2-3.35c.69-1.34,1.38-2.79,2-4.36s1.28-3,1.83-4.35,1-2.45,1.3-3.31A5.78,5.78,0,0,0,687.16,755.11Zm-19.77-4.64q.11-3.71.29-7.53t.4-7.38q.21-3.55.29-6.33c0-1.85,0-3.34,0-4.47s-.25-1.69-.54-1.69-.61.57-1.12,1.69-1.09,2.63-1.76,4.5-1.38,4-2.12,6.41-1.47,4.87-2.16,7.42-1.34,5.06-1.91,7.56-1,4.75-1.3,6.77l1.8,0c1.06,0,2.2,0,3.42,0s2.82,0,4.79-.07Q667.28,754.18,667.39,750.47Z" transform="translate(-399.73 -301.49)"></path><path class="cls-3" d="M707.68,755.47a1.29,1.29,0,0,1,.72-.86,1.66,1.66,0,0,1,.93-.15,1.18,1.18,0,0,1,.72.4.63.63,0,0,1,.15.68,12.64,12.64,0,0,1-1.3,2.2,28.59,28.59,0,0,1-2.34,2.88,39.86,39.86,0,0,1-3.2,3.13,47.85,47.85,0,0,1-3.82,3,9.82,9.82,0,0,1,1.94,4.11,13.87,13.87,0,0,1,.22,4.68,15.51,15.51,0,0,1-1.3,4.61,16,16,0,0,1-2.55,4,12.54,12.54,0,0,1-3.57,2.85,9,9,0,0,1-4.32,1.08,4.33,4.33,0,0,1-3.56-1.8,6.91,6.91,0,0,1-1.26-4.76,15.32,15.32,0,0,1,2.27-6.66,27.94,27.94,0,0,1,6.87-7.52c-1.24-1.39-2.52-2.71-3.81-4a30.41,30.41,0,0,1-3.49-4,20.4,20.4,0,0,1-2.56-4.72,17.12,17.12,0,0,1-1-6.19,17.71,17.71,0,0,1,.22-2.74,11.11,11.11,0,0,1,.79-2.77,9.3,9.3,0,0,1,1.55-2.45,6.93,6.93,0,0,1,2.41-1.76,4.73,4.73,0,0,1,2-.44,4,4,0,0,1,3.06,1.09,5.07,5.07,0,0,1,1.33,2.73,12.11,12.11,0,0,1,0,3.71,24.06,24.06,0,0,1-.9,4,27.69,27.69,0,0,1-1.41,3.61A14.16,14.16,0,0,1,691,756a24.34,24.34,0,0,0,3.39,4.25,54.22,54.22,0,0,1,3.74,4.18c.87-.62,1.78-1.3,2.74-2s1.87-1.46,2.73-2.23,1.66-1.53,2.38-2.3A9.42,9.42,0,0,0,707.68,755.47Zm-18.29-1.87a3,3,0,0,0,.86-1.33,20.67,20.67,0,0,0,.83-2.49,29.19,29.19,0,0,0,.65-3,23.48,23.48,0,0,0,.29-3,6.59,6.59,0,0,0-.26-2.24c-.19-.57-.5-.86-.93-.86s-1,.59-1.48,1.76a16.57,16.57,0,0,0-.68,5.51c0,1.2,0,2.22.07,3.06A7.27,7.27,0,0,0,689.39,753.6Zm6.05,16.56a16.9,16.9,0,0,0-4.86,5.15,11.24,11.24,0,0,0-1.55,4.57,5.37,5.37,0,0,0,.61,3.24c.5.81,1,1.22,1.62,1.22a3.73,3.73,0,0,0,2.63-1.44,10.69,10.69,0,0,0,2.12-3.56,13.05,13.05,0,0,0,.79-4.61A8.16,8.16,0,0,0,695.44,770.16Z" transform="translate(-399.73 -301.49)"></path><path class="cls-3" d="M728.94,784.56a3.14,3.14,0,0,1-3.41-2.52A115.54,115.54,0,0,1,724,765.87q-.07-6.87-.07-9.82,0-16.92,1.22-33a3.53,3.53,0,0,1,3.17-3.24,2.67,2.67,0,0,0,.86-.22,16.31,16.31,0,0,1,2.24.15,3.3,3.3,0,0,1,1.8.79,2.51,2.51,0,0,1,.72,1.94,25.65,25.65,0,0,1-.29,3.53q-1.41,11.38-2.32,25.81t-.92,28.7c0,1.58,0,2.65-.07,3.2S729.84,784.56,728.94,784.56Z" transform="translate(-399.73 -301.49)"></path><path class="cls-3" d="M771.18,754.46c.72.24,1.08.63,1.08,1.15v.15s-.13.52-.4,1.4-.61,2.05-1,3.49-1,3.09-1.59,4.94-1.28,3.73-2,5.65-1.44,3.78-2.23,5.58a46.33,46.33,0,0,1-2.41,4.79c-.34.57-.71,1.16-1.11,1.76a13.86,13.86,0,0,1-1.37,1.69,6.86,6.86,0,0,1-1.7,1.3,4.38,4.38,0,0,1-2.08.5,3.76,3.76,0,0,1-3.82-2.59,18.29,18.29,0,0,1-1-6.55c0-1.58.07-3.25.22-5s.31-3.51.5-5.29.39-3.51.58-5.22.31-3.27.36-4.71c0-.39,0-.89,0-1.52a13.06,13.06,0,0,0-.18-1.8,5.36,5.36,0,0,0-.46-1.51c-.22-.43-.5-.65-.83-.65-.58,0-1.18.5-1.8,1.48a23.57,23.57,0,0,0-1.84,3.67c-.6,1.47-1.16,3.05-1.69,4.76s-1,3.3-1.41,4.78-.85,3.22-1.33,5.19a1.74,1.74,0,0,1-1.18,1.08,6.1,6.1,0,0,1-2.13.36,5.5,5.5,0,0,1-2.2-.43,1.33,1.33,0,0,1-.9-1.37l.58-18.07c0-.58.38-1.05,1.15-1.41a5.88,5.88,0,0,1,2.52-.54,4.07,4.07,0,0,1,1.95.47,1.63,1.63,0,0,1,.86,1.55l-.36,8.85c.43-1.44.92-2.94,1.48-4.5a26.18,26.18,0,0,1,2-4.35,11.82,11.82,0,0,1,2.7-3.32,5.4,5.4,0,0,1,3.56-1.29l1.12.07a4.74,4.74,0,0,1,2,.72,6,6,0,0,1,2,2.2,9.08,9.08,0,0,1,.9,4.5c0,1.44-.1,3.2-.29,5.29s-.42,4.21-.68,6.37-.5,4.25-.69,6.26-.29,3.7-.29,5a9.33,9.33,0,0,0,.18,2.06q.18.75.54.75c.44,0,1.06-.69,1.88-2.08s1.46-2.81,2.23-4.54,1.51-3.5,2.23-5.33,1.39-3.62,2-5.4,1.16-3.36,1.62-4.75.81-2.52,1.08-3.39.39-1.31.39-1.36a1.89,1.89,0,0,1,.4-.62.86.86,0,0,1,.61-.25Z" transform="translate(-399.73 -301.49)"></path><path class="cls-3" d="M807.47,754.68a1,1,0,0,1,.79,1.08,18.21,18.21,0,0,1-.69,2.48c-.45,1.47-1.07,3.23-1.83,5.29s-1.67,4.28-2.7,6.63a69.48,69.48,0,0,1-3.28,6.52,27.74,27.74,0,0,1-3.56,5,5.06,5.06,0,0,1-3.49,2c-1.21,0-2.32-.9-3.35-2.7s-1.89-4.83-2.56-9.11a40.91,40.91,0,0,0-1.29-6.19,13.14,13.14,0,0,0-1.48-3.31,3.34,3.34,0,0,0-1.48-1.33,3.72,3.72,0,0,0-1.22-.25,1.51,1.51,0,0,0-.65.14.59.59,0,0,1-.29.07c-1.29,3.17-2.31,5.78-3.06,7.81s-1.16,3.14-1.26,3.28c-.09.34-.51.62-1.26.87a7.84,7.84,0,0,1-2.34.35,4.88,4.88,0,0,1-1.9-.35,1.36,1.36,0,0,1-.83-1.37l.07-45.15c0-.53.37-1,1.12-1.33a5.42,5.42,0,0,1,2.41-.54,4.42,4.42,0,0,1,2,.47,1.67,1.67,0,0,1,.9,1.62l-.36,38.81q1.58-4.24,3.56-8.9a66.68,66.68,0,0,1,4.36-8.53,28.41,28.41,0,0,1,5.22-6.44,9.07,9.07,0,0,1,6.16-2.56,1.23,1.23,0,0,1,1.22,1.23.83.83,0,0,1-.94.93,5,5,0,0,0-3,1.19,17.61,17.61,0,0,0-3,3q-1.47,1.85-2.84,4t-2.45,4c-.72,1.23-1.32,2.26-1.8,3.1s-.79,1.29-.94,1.33a11,11,0,0,1,2.09-.21,8.16,8.16,0,0,1,5.26,1.51,9.52,9.52,0,0,1,2.81,3.74,16.84,16.84,0,0,1,1.18,4.9q.26,2.67.36,4.89a37.39,37.39,0,0,0,.36,3.75c.17,1,.57,1.51,1.19,1.51s1.26-.54,2-1.62a32.32,32.32,0,0,0,2.49-4.1q1.29-2.49,2.55-5.37t2.24-5.36c.64-1.66,1.17-3.05,1.58-4.18s.61-1.71.61-1.76a.76.76,0,0,1,.25-.58,1,1,0,0,1,.62-.21.36.36,0,0,1,.18,0S807.37,754.68,807.47,754.68Z" transform="translate(-399.73 -301.49)"></path><path class="cls-1" d="M507.3,827.6h17.82v2.25H507.3v14h-2.38v-31h20.82v2.38H507.3Z" transform="translate(-399.73 -301.49)"></path><path class="cls-1" d="M556.55,839.53a15.93,15.93,0,0,1-11.28,4.64c-10.43,0-15.87-7.29-15.91-15.64s5.3-16,15.91-16a15.94,15.94,0,0,1,11.28,4.65l-1.64,1.41a13.54,13.54,0,0,0-9.64-3.93c-9,0-13.66,6.36-13.61,13.79.09,7.25,4.68,13.52,13.61,13.52A13.8,13.8,0,0,0,555,838Z" transform="translate(-399.73 -301.49)"></path><path class="cls-1" d="M562.2,843.82V812.88h2.35v30.94Z" transform="translate(-399.73 -301.49)"></path><path class="cls-1" d="M585.23,812.88v18.65l10.3-9.55h2.87v.09l-11,10.21,12.34,11.41v.13H597l-11.72-10.7v10.7h-2.12V812.88Z" transform="translate(-399.73 -301.49)"></path><path class="cls-1" d="M601.23,832.9a11,11,0,0,1,11.1-11.27c6.14,0,11.62,3.76,10.78,12.29H603.44a8.6,8.6,0,0,0,8.89,8.09c2.87,0,6.23-1.15,7.87-3.32l1.54,1.24c-2.12,2.79-5.92,4.2-9.41,4.2C606.18,844.13,601.23,839.84,601.23,832.9Zm19.94-.88c0-5.39-3.58-8.4-8.84-8.4-4.51,0-8.4,3-8.89,8.4Z" transform="translate(-399.73 -301.49)"></path><path class="cls-1" d="M630.85,822v3.89a8.68,8.68,0,0,1,7.78-4.28c5.83,0,9.86,3.58,9.86,9.63v12.6h-2.17V831.27c0-4.95-3.05-7.61-7.78-7.56a7.59,7.59,0,0,0-7.65,7.95v12.16h-2.16V822Z" transform="translate(-399.73 -301.49)"></path><path class="cls-1" d="M656.27,822v3.89a8.68,8.68,0,0,1,7.78-4.28c5.83,0,9.85,3.58,9.85,9.63v12.6h-2.16V831.27c0-4.95-3-7.61-7.78-7.56a7.59,7.59,0,0,0-7.65,7.95v12.16h-2.17V822Z" transform="translate(-399.73 -301.49)"></path><path class="cls-1" d="M678.32,832.9a11,11,0,0,1,11.1-11.27c6.14,0,11.62,3.76,10.79,12.29H680.53a8.6,8.6,0,0,0,8.89,8.09c2.87,0,6.23-1.15,7.87-3.32l1.54,1.24c-2.12,2.79-5.92,4.2-9.41,4.2C683.27,844.13,678.32,839.84,678.32,832.9Zm19.94-.88c0-5.39-3.58-8.4-8.84-8.4-4.51,0-8.4,3-8.89,8.4Z" transform="translate(-399.73 -301.49)"></path><path class="cls-1" d="M708,812.88v30.94h-2.16V812.88Z" transform="translate(-399.73 -301.49)"></path><path d="M668.86,675.27c-.13-1.27-.33-2.53-.39-3.81s0-2.68,0-4c-.07-2.3-.3-4.61-.22-6.9a2.62,2.62,0,0,0-.51-1.93c-.82-1-1.55-2.19-2.45-3.12-1.59-1.65-2.06-3.82-2.38-6.09,0-.21.18-.47.29-.72l-.87-1.36.87.19c-.42-1.37-.8-2.59-1.19-3.85l.94-1-.2-.94,1-.34c-.92-1.17-.14-1.81.73-2.74l-1-.23.24-.28,1.4.48L664,635.93l.27-.21,1,.92.17-.15-.95-1.9.68-.33c-.24-1.1-1-2-.75-3.35a11.46,11.46,0,0,0-.29-3l1.23.37c-.26-.62-.79-1.31-.66-1.63a2.41,2.41,0,0,0-.3-2.16c-.3-.72-.53-1.45.34-1.89l-.85-1.34c.19-.47.37-.7.33-.86-.17-.63-.64-1.27-.58-1.85.25-2.38.56-4.73-.82-6.93l.8-.1c-.14-.23-.33-.4-.34-.58a8.38,8.38,0,0,0-1.62-4,8.71,8.71,0,0,1-.83-2.43c-.44-1.61-.72-3.31-1.31-4.85s-2-2.87-2.43-4.77a7,7,0,0,0-1.2-2.11c-3.26-4.3-6.21-8.88-10.61-12-5.73-4-11.75-6.8-18.44-7.49-3.69-.39-7.38-.63-11.08-.88-1.94-.14-3.89-.05-5.82-.27a16.18,16.18,0,0,0-6.39.22c-.13,0-.28,0-.42-.07.07-.24.13-.44.18-.63a8.9,8.9,0,0,0-2.17-.14,20.79,20.79,0,0,1-7.29-.4c-.32-.06-.57-.54-.86-.79a5,5,0,0,0-1.27-1,10.33,10.33,0,0,0-2.15-.49,32.32,32.32,0,0,1-11-3.4c-1-.58-2.23-.87-2.6-2.39,0-.18-.28-.3-.44-.42l-3.22-2.34c.14-.72.61-1.23,0-1.84a27.38,27.38,0,0,1-2.51-2.65c-.29-.38-.28-1-1-.81-.08,0-.32-.59-.45-.93-.07-.17,0-.45-.08-.57a17.24,17.24,0,0,0-2-2.33,16.7,16.7,0,0,1-3.51-4,31.92,31.92,0,0,0-2.23-2.94c.08-.18.27-.48.21-.56a6.37,6.37,0,0,0-1-1.2c-.89-.78-2.05-1.29-2.68-2.28a13.09,13.09,0,0,0-3.56-3.59c-1.72-1.26-3.09-3-4.92-4.16-1.5-.92-2.32-3.05-4.23-3.35-.11,0-.21-.22-.29-.34-.87-1.37-2.25-1.71-3.53-2.1a1.85,1.85,0,0,1-1.11-.83,26.64,26.64,0,0,1-3.85-7.32c-.3-1-.82-1.82-1.87-1.61-1.36-3-1.59-3.19-3.21-2.51-.63,4.15.18,8.38.07,12.58a3.5,3.5,0,0,1-.83.25,3,3,0,0,0-3.1,2.15c-.14.35-.55.58-.86.83-.94.77-1.93,1.47-2.84,2.28-1.1,1-2.19,2-3.21,3.1a7.7,7.7,0,0,0-2.47,5.52,4.57,4.57,0,0,1-.73,2.48,6.26,6.26,0,0,1-4.3,3.2,7.23,7.23,0,0,0-1.25.46c-1.29.52-2.59,1-3.85,1.59-1.68.8-3.56,1.2-4.67,3.16-.15.27-.57.38-.89.47-.58.16-1.17.24-1.11,1.21s-.07,2.06.79,2.41c.1.62,0,1.26.28,1.61a72.76,72.76,0,0,0,4.34,5.86,9.91,9.91,0,0,0,7.53,3.47,15.86,15.86,0,0,1,3.41.73c.58.15.84.63.81,1.38a11.93,11.93,0,0,0,.12,2.54,4.31,4.31,0,0,1-.24,2.75,2.07,2.07,0,0,0-.27,1.2c.44,1.73-.21,3.07-1.06,4.5,1,.38-.25,1.72.86,2.12a11.61,11.61,0,0,0-1,1c-.13.19-.25.62-.17.74.44.65.14,1.61.38,2a3.2,3.2,0,0,1,.25,2.23c0,.09.26.21.43.33l-1.1,1.21c1,.57.08,1.17.14,1.72.68-.11,1.37-.24,1.65.85l-.87.72a1.36,1.36,0,0,1-.25,2,3.87,3.87,0,0,1,1.5,2,2.56,2.56,0,0,1-.45,2.72c.78,1,.78,1,.25,2.35l1.62,1.29c0,.16-.14.53-.27,1l1.22-.85a8.51,8.51,0,0,0-.79,1.5c.68.77-.07,1.59.14,2.34h1.48l-.48,1.28c.65.68,1.2,1.23,1.72,1.83.09.1,0,.4,0,.58.32,1.07.65,2.14,1,3.21,1-.6.45,1.72,1.59.82l-.52,1c.89,1.89,3.05,2.83,2.75,5.49,1.45-.43,1.48,2,2.92,1.79-.09.29-.29.65-.22.78.56.87,1,2.06,1.8,2.45,1.3.67,1.7,2.57,3.21,2.8.06,0,.14.18.15.28.11,1.12,1,1.12,1.63,1.5.78.49,1.81.61,2.41,1.27.8.9,1.77,1.54,2.54,2.53a8.88,8.88,0,0,1,1.76,3.78c.49,2.34.95,4.71,1.65,7a49.5,49.5,0,0,1,1.65,8.5c.46,3.82,1.21,7.61,1.77,11.42a37,37,0,0,1,.53,5.34c0,3.08-.18,6.17-.3,9.25,0,.27-.07.53-.11.84-.65.23-1.25.47-1.85.66a8.12,8.12,0,0,0-4.41,3.9,2.83,2.83,0,0,0-.17,3.16l3.7.63-.21,1.56,6.59,1.36-1-1,.15-.32c.51.23,1,.44,1.53.7a2.06,2.06,0,0,0,2.18,0c.2-.13.61-.17.73,0,.62.72,1.26.25,1.9.18.38,0,.78,0,1.17-.06a2,2,0,0,0,.81-.12c1-.54,1.91-1.06,1.9-2.64a7.93,7.93,0,0,1,.62-2.06,31.61,31.61,0,0,0,1-3.58c.23-1.31,0-2.76.4-4a5,5,0,0,0-.28-3.16c.29-1,1-.35,1.7-.3-1.3-1.29-.46-2.52-.42-3.31a12.6,12.6,0,0,1-.69-2.43,9.13,9.13,0,0,1,.36-2.13c-.26-.4-.62-.93-1-1.45.43-.72,1.12-1.37,1.16-2A9.45,9.45,0,0,0,565,662a9.23,9.23,0,0,1-.17-2.22l.9-.28c0-.71,0-1.4,0-2.09a5.92,5.92,0,0,1,.06-2.33,2.37,2.37,0,0,0-.09-1.46c-.43-1-.51-2,.27-2.63s.62-1.23.91-1.85c.4-.85.09-2.16,1.28-2.62.1.74.19,1.44.28,2.13l.6-2.25.3.07c0,.74-.06,1.48-.11,2.47.68-1.43,1.25-2.61,1.86-3.9,0,.77.07,1.38.1,2h.28l1-2.58.5,1.38.49-1.6.76,1.57.71-1.64c.36.34,0,1.31.83,1,0,.54.08,1.07.08,1.6s0,1.23-.08,1.81l2.35-4.76.46,1.73c.47-.77.81-1.33,1.22-2,.12.26.24.5.42.9l.31-1.27,1.37,1.4c.2-.26.3-.54.45-.57a14.47,14.47,0,0,0,2.05-.88c.63-.24,1-1.33,1.78-1v3l.23,0,.42-1.77.23,0c.1.45.19.91.29,1.36.17-.48.73-.85.16-1.43-.15-.15.18-.92.36-1.68.28,1.06.46,1.75.64,2.45l.31-.08v-2c.33.23.57.31.65.48a4.44,4.44,0,0,1,.16,1c.25-.32.43-.53.78-1L590,644.2l1.64-2,.26.6.45-1.72,1.42-.47.41,1.1c.08-.59.14-1,.22-1.52l.91,1.4.3-1.61c.73.51.8.5,1.2-.1a.72.72,0,0,1,.3-.28c.56-.18,1.11-.33,1.69-.49l.26.47c.09-.63.15-1.07.24-1.65h1.82c.31-1.34.31-1.34,1.89-1l.4,1.42a11.61,11.61,0,0,1,.41-2.68h-.38c-.06,0-.06-.09,0-.1l.43,0a2.07,2.07,0,0,1,.31-.48,1.57,1.57,0,0,1,.49.44,62.62,62.62,0,0,1,6.85.07,56.51,56.51,0,0,1,6.59.73,8.59,8.59,0,0,1,2.6,1,1.71,1.71,0,0,0,1-.71l1,1.32.68-.7,2.09,1.6c.54-.43,1-.8,1.56.12a6,6,0,0,0,1.34,1.76,8.09,8.09,0,0,0,2,.84,1,1,0,0,1,.39.2c1.38,1.31,2.77,2.59,4.1,4,1.63,1.69,3.14,3.54,4.81,5.18,1.92,1.89,4,3.62,5.92,5.45a34.85,34.85,0,0,1,2.8,2.9c.67.8,1.18,1.78,1.8,2.63,2.63,3.6,4.94,7.37,5.4,12.24a23,23,0,0,0,.41,3c.38,1.74.09,3.1-1.37,4-.35.21-.64.54-1,.72-1.6.78-2.07,2.22-1.89,4,1.25.84,1.25.84,1.91,2.85.07.19.28.32.37.51.17.39.29.81.37,1.05l2.57,1a2,2,0,0,1,3,.16,23.92,23.92,0,0,0,3.45-.39,3.55,3.55,0,0,1,3.19.29,6.22,6.22,0,0,0,2.32-3.46,2.89,2.89,0,0,0,.15-.8,24.25,24.25,0,0,1,.31-6.07C669.62,679.21,669.07,677.21,668.86,675.27Z" transform="translate(-399.73 -301.49)"></path></svg> 